<svg width="134" height="153" viewBox="0 0 134 153" fill="none" xmlns="http://www.w3.org/2000/svg">
<path d="M91.7698 28.0473C88.7589 2.10765 65.6809 6.51437 54.5182 11.9602C54.625 51.2387 54.7349 130.081 54.3207 131.222C56.0022 146.468 69.0447 134.831 75.3557 127.106C89.2593 134.823 94.4555 122.168 94.6478 113.988C114.989 109.023 106.474 85.5463 105.002 85.4606C125.311 63.606 103.232 54.4468 101.933 53.8856C110.924 40.7794 100.37 27.3613 91.7698 28.0473Z" fill="#626262"/>
<path d="M62.6119 37.0982L62.1587 36.887L62.1136 36.9839L62.1119 37.0907L62.6119 37.0982ZM72.6896 15.4673L68.8537 16.8649L70.2513 20.7007L74.0872 19.3031L72.6896 15.4673ZM84.4669 37.427L84.7544 37.0179L84.6284 36.9293L84.4744 36.927L84.4669 37.427ZM84.1437 58.9095L87.0735 56.0665L84.2305 53.1367L81.3007 55.9797L84.1437 58.9095ZM99.5527 48.0316L98.8512 44.0099L94.8294 44.7114L95.531 48.7331L99.5527 48.0316ZM61.3283 122.422L60.8284 122.414L60.8178 123.119L61.4865 122.896L61.3283 122.422ZM86.0369 114.18L82.385 112.355L80.5601 116.007L84.2119 117.832L86.0369 114.18ZM99.2576 66.0795L95.2473 65.315L94.4828 69.3252L98.493 70.0897L99.2576 66.0795ZM98.669 95.8321L98.3516 91.762L94.2815 92.0793L94.5989 96.1495L98.669 95.8321ZM73.8783 106.846L77.2907 104.604L75.0495 101.192L71.6372 103.433L73.8783 106.846ZM62.1119 37.0907L62.0837 38.9708L63.0836 38.9858L63.1118 37.1057L62.1119 37.0907ZM62.0271 42.731L61.9705 46.4913L62.9704 46.5063L63.027 42.7461L62.0271 42.731ZM61.914 50.2515L61.8574 54.0118L62.8573 54.0268L62.9138 50.2666L61.914 50.2515ZM61.8008 57.772L61.7443 61.5323L62.7441 61.5473L62.8007 57.7871L61.8008 57.772ZM61.6877 65.2925L61.6594 67.1727L62.6593 67.1877L62.6876 65.3076L61.6877 65.2925ZM61.6594 67.1727L61.6297 69.1456L62.6296 69.1606L62.6593 67.1877L61.6594 67.1727ZM61.5704 73.0914L61.511 77.0372L62.5109 77.0522L62.5703 73.1064L61.5704 73.0914ZM61.4516 80.983L61.3923 84.9288L62.3922 84.9439L62.4515 80.9981L61.4516 80.983ZM61.3329 88.8747L61.2736 92.8205L62.2735 92.8355L62.3328 88.8897L61.3329 88.8747ZM61.2142 96.7663L61.1549 100.712L62.1547 100.727L62.2141 96.7813L61.2142 96.7663ZM61.0955 104.658L61.0361 108.604L62.036 108.619L62.0954 104.673L61.0955 104.658ZM60.9768 112.55L60.9174 116.495L61.9173 116.51L61.9767 112.565L60.9768 112.55ZM60.8581 120.441L60.8284 122.414L61.8283 122.429L61.8579 120.456L60.8581 120.441ZM61.4865 122.896L63.3174 122.285L63.001 121.337L61.1701 121.947L61.4865 122.896ZM66.9791 121.064L70.6408 119.842L70.3243 118.894L66.6626 120.115L66.9791 121.064ZM74.3025 118.621L77.9642 117.4L77.6477 116.451L73.986 117.672L74.3025 118.621ZM81.6258 116.178L83.4567 115.567L83.1403 114.619L81.3094 115.23L81.6258 116.178ZM61.8707 67.5884L63.3197 68.6132L63.8971 67.7967L62.448 66.7719L61.8707 67.5884ZM66.2178 70.6627L69.1159 72.7122L69.6933 71.8957L66.7952 69.8462L66.2178 70.6627ZM72.014 74.7617L74.9122 76.8112L75.4895 75.9948L72.5914 73.9453L72.014 74.7617ZM77.8103 78.8608L79.2593 79.8855L79.8367 79.069L78.3877 78.0443L77.8103 78.8608ZM63.0651 37.3093L63.8033 35.7248L62.8969 35.3025L62.1587 36.887L63.0651 37.3093ZM65.2798 32.5558L66.7562 29.3868L65.8497 28.9645L64.3733 32.1335L65.2798 32.5558ZM68.2326 26.2178L69.709 23.0487L68.8026 22.6264L67.3262 25.7955L68.2326 26.2178ZM71.1855 19.8797L71.9237 18.2952L71.0172 17.8729L70.279 19.4574L71.1855 19.8797ZM62.6044 37.5981L64.4256 37.6255L64.4407 36.6256L62.6194 36.5982L62.6044 37.5981ZM68.0681 37.6803L71.7106 37.7351L71.7257 36.7352L68.0832 36.6804L68.0681 37.6803ZM75.3531 37.7899L78.9956 37.8447L79.0106 36.8448L75.3681 36.79L75.3531 37.7899ZM82.6381 37.8995L84.4593 37.9269L84.4744 36.927L82.6531 36.8996L82.6381 37.8995ZM83.9669 37.4195L83.932 39.744L84.9318 39.759L84.9668 37.4345L83.9669 37.4195ZM83.862 44.393L83.7921 49.042L84.792 49.0571L84.8619 44.408L83.862 44.393ZM83.7221 53.6911L83.6872 56.0156L84.6871 56.0306L84.722 53.7061L83.7221 53.6911ZM84.1793 37.836L85.7699 38.9541L86.3449 38.136L84.7544 37.0179L84.1793 37.836ZM88.9509 41.1902L92.132 43.4263L92.707 42.6082L89.526 40.3721L88.9509 41.1902ZM95.313 45.6625L96.9035 46.7805L97.4786 45.9624L95.8881 44.8444L95.313 45.6625ZM79.8291 79.8908L81.2726 78.9095L80.7104 78.0825L79.2669 79.0638L79.8291 79.8908ZM84.1596 76.9471L87.0467 74.9846L86.4845 74.1575L83.5975 76.12L84.1596 76.9471ZM89.9337 73.0221L92.8207 71.0596L92.2586 70.2326L89.3715 72.1951L89.9337 73.0221ZM95.7078 69.0971L97.1513 68.1159L96.5891 67.2888L95.1456 68.2701L95.7078 69.0971ZM79.223 79.8572L80.6336 81.0638L81.2836 80.3038L79.873 79.0973L79.223 79.8572ZM83.4548 83.4769L86.276 85.8899L86.926 85.13L84.1048 82.7169L83.4548 83.4769ZM89.0972 88.303L91.9184 90.7161L92.5684 89.9561L89.7472 87.5431L89.0972 88.303ZM94.7396 93.1291L96.1502 94.3357L96.8002 93.5757L95.3896 92.3692L94.7396 93.1291ZM74.9535 104.12L75.3772 102.075L74.398 101.872L73.9743 103.917L74.9535 104.12ZM76.2246 97.9849L77.0719 93.8946L76.0927 93.6918L75.2454 97.7821L76.2246 97.9849ZM77.9193 89.8044L78.7666 85.7141L77.7874 85.5113L76.94 89.6015L77.9193 89.8044ZM79.6139 81.6238L80.0376 79.5787L79.0584 79.3758L78.6347 81.421L79.6139 81.6238Z" fill="white"/>
<path d="M28.1692 98.0179L30.4553 100.56L12.7061 113.168L28.1692 98.0179Z" fill="#3D4BC6" stroke="#5D68CA"/>
<path d="M40.992 120.987L44.2384 122.555L33.7116 142.111L40.992 120.987Z" fill="#3D4BC6" stroke="#5D68CA"/>
<path d="M43.6902 20.1049L40.4382 21.662L31.7313 1.23066L43.6902 20.1049Z" fill="#3D4BC6" stroke="#5D68CA"/>
<path d="M22.451 68.2643L22.3105 71.8638L0.187195 70.0026L22.451 68.2643Z" fill="#3D4BC6" stroke="#5D68CA"/>
<path d="M29.1712 37.4988L27.2332 40.5353L9.0737 27.7629L29.1712 37.4988Z" fill="#3D4BC6" stroke="#5D68CA"/>
</svg>
