<svg width="150" height="152" viewBox="0 0 150 152" fill="none" xmlns="http://www.w3.org/2000/svg">
<path d="M34.8105 86.6999C35.1231 89.1285 37.0046 89.1129 37.9062 88.8015L78.1225 80.0101C78.1794 79.9976 78.2396 79.9785 78.2937 79.9563C104.228 69.3315 81.5816 67.7253 76.6253 66.3806C76.5012 66.3469 76.3834 66.3377 76.2544 66.3511L35.7117 70.5717C35.6123 70.5821 35.5111 70.5762 35.4131 70.5602C33.2279 70.203 32.9248 72.0494 33.0523 73.0393L34.8105 86.6999Z" fill="#B7902E"/>
<path d="M29.1937 89.8149C29.4251 85.3916 31.2095 84.0961 32.8238 83.992C33.6154 83.941 34.4746 83.2866 34.3731 82.498L33.7115 77.3578C33.6349 76.7626 33.0572 76.3821 32.4735 76.5268C31.0985 76.8677 29.4526 77.1935 29.4124 76.8807C28.9753 68.9479 27.2535 69.793 25.9051 72.1885C25.4571 72.9842 24.2436 73.0319 23.8909 72.208L22.1733 68.1954C20.4697 65.2068 18.8326 69.0868 17.9904 72.2484C17.819 72.8919 17.1026 73.2423 16.5089 72.972C8.18479 69.1821 11.6721 75.5239 13.6683 78.3906C14.0976 79.0072 15.5818 79.9807 16.1764 80.4371C18.0648 81.8865 16.5687 83.8067 15.3686 84.7196C15.3595 84.7266 15.3486 84.737 15.3408 84.7455C15.189 84.9111 13.4005 87.5852 13.3168 87.7933C9.81075 96.5087 14.214 94.085 18.0274 90.7634C18.6884 90.1877 19.7428 90.6163 19.8282 91.4793C20.4467 97.7278 22.9832 95.4262 24.8762 92.3146C25.332 91.5652 26.4777 91.5942 26.8681 92.3599C28.8646 96.2761 29.2667 92.5289 29.1937 89.8149Z" fill="#2F791C"/>
<path d="M87.7865 71.0571L30.7131 95.7588C28.6857 96.6363 27.6494 99.0324 28.3983 101.111L40.295 134.123C41.044 136.201 43.2947 137.175 45.3221 136.297L102.395 111.595C104.423 110.718 105.459 108.322 104.71 106.244L92.8135 73.2314C92.0645 71.1531 89.8139 70.1797 87.7865 71.0571Z" fill="#323232"/>
<path d="M83.3059 77.0361L38.3503 96.4932C36.3229 97.3707 35.2865 99.7668 36.0355 101.845L45.1615 127.169C45.9104 129.247 48.1611 130.221 50.1885 129.343L95.1442 109.886C97.1715 109.009 98.2079 106.612 97.459 104.534L88.3329 79.2104C87.584 77.1321 85.3333 76.1586 83.3059 77.0361Z" fill="#33319F" stroke="#585858"/>
<path d="M87.148 128.305L68.1245 136.539C67.4077 136.849 66.7037 136.241 66.9172 135.466C67.8309 132.148 70.3169 125.186 75.4567 123.266C80.6258 121.335 85.4441 124.889 87.4759 126.725C87.9845 127.185 87.7938 128.026 87.148 128.305Z" fill="#323232"/>
<path d="M50.7175 1L27.9747 28.6435L80.1433 80.1905L102.886 52.547L50.7175 1Z" fill="#267D18" stroke="#267D18"/>
<path d="M46.7125 10.0069C50.3052 14.094 53.1065 11.1767 54.0581 9.20722L96.4805 51.1241C93.26 54.3882 94.1764 56.9052 95.0371 57.7557L82.8481 72.5712C79.897 69.6552 77.7799 71.1446 77.0903 72.2538L35.7746 31.4304C38.4562 28.171 36.0578 25.667 34.5235 24.8224L46.7125 10.0069Z" fill="#40C020" stroke="#40C020"/>
<path d="M35.7148 9.17534L20.5148 42.4602L83.3299 76.9112L98.5299 43.6263L35.7148 9.17534Z" fill="#267D18" stroke="#267D18"/>
<path d="M34.0443 19.0261C38.5008 21.9164 40.4916 18.2867 40.9299 16.1105L92.0098 44.1253C89.6993 48.2117 91.1945 50.3702 92.2309 50.9386L84.0845 68.7776C80.5311 66.8287 78.8527 68.8824 78.4576 70.1529L28.7103 42.8689C30.5025 38.9444 27.5821 37.2311 25.8979 36.8651L34.0443 19.0261Z" fill="#40C020" stroke="#40C020"/>
<path d="M23.3042 21.4383L16.7848 57.9667L85.7209 72.7428L92.2402 36.2145L23.3042 21.4383Z" fill="#267D18" stroke="#267D18"/>
<path d="M24.0996 31.4198C29.0993 32.898 30.1313 28.8168 30.0224 26.5914L86.0797 38.6071C84.8511 43.222 86.8188 44.8634 87.9562 45.1072L84.4622 64.6844C80.5625 63.8486 79.4467 66.3196 79.3763 67.6595L24.7813 55.9573C25.55 51.6503 22.3178 50.8559 20.6056 50.9971L24.0996 31.4198Z" fill="#40C020" stroke="#40C020"/>
<path d="M16.8331 47.2L44.9846 61.218C37.4509 79.3885 56.6696 82.5298 56.686 76.1094C67.6358 74.4903 65.9752 83.8847 66.417 82.819C64.8705 86.5489 81.6304 103.252 88.4792 86.7333C89.9781 83.8368 92.8276 77.97 92.235 77.6749C102.775 56.5658 78.4252 56.0125 77.6843 55.6436C70.5948 63.042 67.5967 56.6205 67.3127 50.479C55.6881 40.5762 49.2039 49.6046 47.4148 55.3567L19.2633 41.3386L19.9261 39.7401C20.5889 38.1415 19.7484 37.2944 19.1072 37.4037L11.3285 33.5303C9.55055 32.645 8.46928 34.678 8.1509 35.8052L5.7207 41.6665C4.66024 44.2242 5.62984 45.4784 6.2472 45.7859L14.0259 49.6593C15.2112 50.2495 16.3913 48.2657 16.8331 47.2Z" fill="#7A642C"/>
<path d="M108.769 28.0654C105.149 2.20364 82.1813 7.1516 71.1497 12.8583C72.1797 52.1234 74.1428 130.941 73.7555 132.092C75.7949 147.294 88.5602 135.353 94.688 127.483C108.769 134.871 113.666 122.097 113.666 113.915C133.885 108.473 124.821 85.2029 123.348 85.1518C143.137 62.8259 120.849 54.1881 119.536 53.6576C128.217 40.3437 117.351 27.1774 108.769 28.0654Z" fill="#626262"/>
<path d="M80.1941 38.8109L79.7508 38.5797L79.6941 38.6883V38.8109H80.1941ZM90.8537 18.3677L86.9593 19.5927L88.1843 23.487L92.0787 22.262L90.8537 18.3677ZM103.973 38.8109L104.225 38.3792L104.108 38.3109H103.973V38.8109ZM103.973 59.0702L106.859 56.1834L103.973 53.2967L101.086 56.1834L103.973 59.0702ZM120.452 48.4429L119.417 44.4939L115.468 45.5295L116.503 49.4785L120.452 48.4429ZM80.1941 118.52H79.6941V119.193L80.3382 118.999L80.1941 118.52ZM106.737 110.535L103.141 108.602L101.208 112.198L104.804 114.131L106.737 110.535ZM120.432 65.4233L116.47 64.4412L115.488 68.4037L119.45 69.3859L120.432 65.4233ZM120.311 93.1143L119.635 89.0883L115.609 89.7646L116.285 93.7907L120.311 93.1143ZM93.553 103.965L96.999 101.776L94.8099 98.3302L91.364 100.519L93.553 103.965ZM79.6941 38.8109V40.5673H80.6941V38.8109H79.6941ZM79.6941 44.0801V47.593H80.6941V44.0801H79.6941ZM79.6941 51.1058V54.6186H80.6941V51.1058H79.6941ZM79.6941 58.1315V61.6443H80.6941V58.1315H79.6941ZM79.6941 65.1571V66.9135H80.6941V65.1571H79.6941ZM79.6941 66.9135V69.0638H80.6941V66.9135H79.6941ZM79.6941 73.3644V77.6649H80.6941V73.3644H79.6941ZM79.6941 81.9655V86.266H80.6941V81.9655H79.6941ZM79.6941 90.5666V94.8672H80.6941V90.5666H79.6941ZM79.6941 99.1677V103.468H80.6941V99.1677H79.6941ZM79.6941 107.769V112.069H80.6941V107.769H79.6941ZM79.6941 116.37V118.52H80.6941V116.37H79.6941ZM80.3382 118.999L82.3197 118.403L82.0316 117.445L80.0501 118.041L80.3382 118.999ZM86.2828 117.211L90.2459 116.018L89.9578 115.061L85.9947 116.253L86.2828 117.211ZM94.209 114.826L98.172 113.634L97.884 112.676L93.9209 113.869L94.209 114.826ZM102.135 112.442L104.117 111.846L103.829 110.888L101.847 111.484L102.135 112.442ZM79.9407 67.3445L81.5337 68.2813L82.0406 67.4193L80.4476 66.4825L79.9407 67.3445ZM84.7197 70.1548L87.9057 72.0283L88.4126 71.1663L85.2266 69.2928L84.7197 70.1548ZM91.0917 73.9018L94.2777 75.7753L94.7846 74.9133L91.5986 73.0398L91.0917 73.9018ZM97.4637 77.6488L99.0567 78.5856L99.5636 77.7236L97.9706 76.7868L97.4637 77.6488ZM80.6375 39.042L81.4146 37.5518L80.5279 37.0894L79.7508 38.5797L80.6375 39.042ZM82.9687 34.5712L84.5229 31.5906L83.6362 31.1282L82.082 34.1088L82.9687 34.5712ZM86.077 28.61L87.6312 25.6294L86.7445 25.1671L85.1903 28.1477L86.077 28.61ZM89.1853 22.6488L89.9624 21.1585L89.0757 20.6962L88.2986 22.1865L89.1853 22.6488ZM80.1941 39.3109H82.1757V38.3109H80.1941V39.3109ZM86.1388 39.3109H90.1018V38.3109H86.1388V39.3109ZM94.0649 39.3109H98.028V38.3109H94.0649V39.3109ZM101.991 39.3109H103.973V38.3109H101.991V39.3109ZM103.473 38.8109V40.9824H104.473V38.8109H103.473ZM103.473 45.3256V49.6687H104.473V45.3256H103.473ZM103.473 54.0119V56.1834H104.473V54.0119H103.473ZM103.72 39.2425L105.469 40.2645L105.973 39.4011L104.225 38.3792L103.72 39.2425ZM108.966 42.3083L112.462 44.3521L112.967 43.4888L109.47 41.4449L108.966 42.3083ZM115.959 46.396L117.708 47.4179L118.212 46.5545L116.464 45.5326L115.959 46.396ZM99.5683 78.5828L101.122 77.6461L100.606 76.7896L99.0521 77.7264L99.5683 78.5828ZM104.231 75.7726L107.339 73.899L106.823 73.0426L103.715 74.9161L104.231 75.7726ZM110.447 72.0255L113.556 70.152L113.039 69.2956L109.931 71.1691L110.447 72.0255ZM116.664 68.2785L118.218 67.3418L117.702 66.4853L116.148 67.4221L116.664 68.2785ZM99.0201 78.5618L100.574 79.6689L101.154 78.8544L99.6003 77.7474L99.0201 78.5618ZM103.683 81.8831L106.791 84.0972L107.371 83.2827L104.263 81.0686L103.683 81.8831ZM109.899 86.3114L113.007 88.5255L113.588 87.711L110.479 85.4969L109.899 86.3114ZM116.116 90.7397L117.67 91.8467L118.25 91.0322L116.696 89.9252L116.116 90.7397ZM94.6695 101.257L95.0969 99.3404L94.1209 99.1227L93.6935 101.039L94.6695 101.257ZM95.9517 95.5083L96.8064 91.6761L95.8304 91.4584L94.9756 95.2906L95.9517 95.5083ZM97.6612 87.8439L98.516 84.0117L97.54 83.794L96.6852 87.6262L97.6612 87.8439ZM99.3708 80.1795L99.7982 78.2634L98.8222 78.0457L98.3948 79.9618L99.3708 80.1795Z" fill="white"/>
</svg>
